HIERARCHY
ROOT Hips
{
	OFFSET 0.00000 0.00000 0.00000
	CHANNELS 6 Xposition Yposition Zposition Zrotation Yrotation Xrotation 
	JOINT LHipJoint
	{
		OFFSET 0 0 0
		CHANNELS 3 Zrotation Yrotation Xrotation
		JOINT LeftUpLeg
		{
			OFFSET 1.85742 -1.74412 1.01653
			CHANNELS 3 Zrotation Yrotation Xrotation
			JOINT LeftLeg
			{
				OFFSET 2.54803 -7.00067 0.00000
				CHANNELS 3 Zrotation Yrotation Xrotation
				JOINT LeftFoot
				{
					OFFSET 2.51202 -6.90173 0.00000
					CHANNELS 3 Zrotation Yrotation Xrotation
					JOINT LeftToeBase
					{
						OFFSET 0.17547 -0.48209 1.64281
						CHANNELS 3 Zrotation Yrotation Xrotation
						End Site
						{
							OFFSET 0.00000 -0.00000 0.86587
						}
					}
				}
			}
		}
	}
	JOINT RHipJoint
	{
		OFFSET 0 0 0
		CHANNELS 3 Zrotation Yrotation Xrotation
		JOINT RightUpLeg
		{
			OFFSET -1.95533 -1.74413 1.01654
			CHANNELS 3 Zrotation Yrotation Xrotation
			JOINT RightLeg
			{
				OFFSET -2.49465 -6.85400 0.00000
				CHANNELS 3 Zrotation Yrotation Xrotation
				JOINT RightFoot
				{
					OFFSET -2.54783 -7.00010 0.00000
					CHANNELS 3 Zrotation Yrotation Xrotation
					JOINT RightToeBase
					{
						OFFSET -0.18513 -0.50864 1.69288
						CHANNELS 3 Zrotation Yrotation Xrotation
						End Site
						{
							OFFSET -0.00000 -0.00000 0.89242
						}
					}
				}
			}
		}
	}
	JOINT LowerBack
	{
		OFFSET 0 0 0
		CHANNELS 3 Zrotation Yrotation Xrotation
		JOINT Spine
		{
			OFFSET 0.02173 2.16290 -0.15998
			CHANNELS 3 Zrotation Yrotation Xrotation
			JOINT Spine1
			{
				OFFSET 0.00940 2.17323 -0.00467
				CHANNELS 3 Zrotation Yrotation Xrotation
				JOINT Neck
				{
					OFFSET 0 0 0
					CHANNELS 3 Zrotation Yrotation Xrotation
					JOINT Neck1
					{
						OFFSET 0.01475 1.85823 0.31113
						CHANNELS 3 Zrotation Yrotation Xrotation
						JOINT Head
						{
							OFFSET 0.01902 1.88783 -0.37187
							CHANNELS 3 Zrotation Yrotation Xrotation
							End Site
							{
								OFFSET 0.00489 1.93211 -0.16169
							}
						}
					}
				}
				JOINT LeftShoulder
				{
					OFFSET 0 0 0
					CHANNELS 3 Zrotation Yrotation Xrotation
					JOINT LeftArm
					{
						OFFSET 3.34199 1.32384 -0.07862
						CHANNELS 3 Zrotation Yrotation Xrotation
						JOINT LeftForeArm
						{
							OFFSET 5.27950 -0.00000 0.00000
							CHANNELS 3 Zrotation Yrotation Xrotation
							JOINT LeftHand
							{
								OFFSET 3.53504 -0.00000 0.00000
								CHANNELS 3 Zrotation Yrotation Xrotation
								JOINT LeftFingerBase
								{
									OFFSET 0 0 0
									CHANNELS 3 Zrotation Yrotation Xrotation
									JOINT LeftHandIndex1
									{
										OFFSET 0.66795 -0.00000 0.00000
										CHANNELS 3 Zrotation Yrotation Xrotation
										End Site
										{
											OFFSET 0.53852 -0.00000 0.00000
										}
									}
								}
								JOINT LThumb
								{
									OFFSET 0 0 0
									CHANNELS 3 Zrotation Yrotation Xrotation
									End Site
									{
										OFFSET 0.54674 -0.00000 0.54674
									}
								}
							}
						}
					}
				}
				JOINT RightShoulder
				{
					OFFSET 0 0 0
					CHANNELS 3 Zrotation Yrotation Xrotation
					JOINT RightArm
					{
						OFFSET -3.16149 1.45719 -0.50507
						CHANNELS 3 Zrotation Yrotation Xrotation
						JOINT RightForeArm
						{
							OFFSET -5.25035 -0.00000 0.00000
							CHANNELS 3 Zrotation Yrotation Xrotation
							JOINT RightHand
							{
								OFFSET -3.58884 -0.00000 0.00000
								CHANNELS 3 Zrotation Yrotation Xrotation
								JOINT RightFingerBase
								{
									OFFSET 0 0 0
									CHANNELS 3 Zrotation Yrotation Xrotation
									JOINT RightHandIndex1
									{
										OFFSET -0.77924 -0.00000 0.00000
										CHANNELS 3 Zrotation Yrotation Xrotation
										End Site
										{
											OFFSET -0.62824 -0.00000 0.00000
										}
									}
								}
								JOINT RThumb
								{
									OFFSET 0 0 0
									CHANNELS 3 Zrotation Yrotation Xrotation
									End Site
									{
										OFFSET -0.63783 -0.00000 0.63783
									}
								}
							}
						}
					}
				}
			}
		}
	}
}
MOTION
Frames: 12
Frame Time: .0083333
-4.3965 17.8232 0.9813 0 0 0 0 0 0 -21 0 0 0 0 0 0 0 0 0 0 0 0 0 0 21 0 0 0 0 0 0 0 0 0 0 0 0 0 0 0 0 0 0 0 0 0 0 -16 0 0 21 0 0 11 0 0 0 -8 0 0 0 0 0 0 0 0 0 0 0 0 0 0 0 0 0 0 0 0 8 0 0 0 0 0 0 0 0 0 0 0 0 0 0 0 0 0
-4.3965 17.8232 0.9813 -47.2248 86.5260 -40.3667 0.0000 0.0000 0.0000 -13.9066 -32.3659 2.0879 0.6171 5.0275 13.9871 -1.8257 26.7292 -24.9274 1.6732 -8.1493 -23.1686 0.0000 0.0000 0.0000 20.0742 8.9152 0.8801 0.0000 -0.0000 0.0000 1.1911 -18.9240 -8.4686 -0.1716 2.6689 -7.3584 2.0870 0.5178 2.2680 1.3921 0.8429 -2.2702 0.2177 0.3949 -3.5994 -4.1145 -6.6064 -18.1019 4.9279 -9.2527 42.0912 1.3756 -2.9689 19.9944 0.0000 -0.0000 0.0000 -87.3167 4.9199 34.2056 18.1198 -28.3102 -4.6059 -0.0000 0.0000 -26.7579 32.5815 53.8084 27.2829 -7.1250 0.0000 -0.0000 -74.1915 84.3136 -68.6215 0.0000 -0.0000 0.0000 83.2982 -4.7347 21.5914 -15.7645 25.2003 -3.5451 0.0000 -0.0000 -4.7668 -20.3369 16.1519 -5.8868 7.1250 -0.0000 -0.0000 4.9422 -12.8629 3.7322
-4.3904 17.8276 0.9870 -50.0826 86.5590 -43.2651 0.0000 0.0000 0.0000 -13.6893 -31.8048 1.8872 0.6090 4.9948 13.8938 -1.7523 26.2287 -24.4328 1.7298 -8.2789 -23.5646 0.0000 0.0000 0.0000 20.2134 8.7673 0.8855 0.0000 -0.0000 0.0000 1.1974 -18.9648 -8.3672 -0.1850 2.7699 -7.6389 2.1878 0.5065 2.4664 1.4400 0.8403 -2.2624 0.2087 0.3909 -3.7033 -4.1316 -6.2424 -17.8425 5.4155 -8.9040 40.7528 1.6512 -2.8427 19.0715 -0.0000 0.0000 0.0000 -87.4173 5.0822 34.0981 18.3025 -28.5428 -4.6929 -0.0000 0.0000 -27.0457 33.1054 53.4724 27.6523 -7.1250 0.0000 -0.0000 -71.5747 84.5413 -66.2971 -0.0000 0.0000 0.0000 83.2478 -4.7798 21.5711 -15.8003 25.2491 -3.5603 0.0000 -0.0000 -4.6508 -20.3106 16.5684 -6.0249 7.1250 -0.0000 -0.0000 4.9814 -12.4289 3.8073
-4.3834 17.8312 0.9922 -51.8924 86.6459 -45.1017 0.0000 0.0000 0.0000 -13.5893 -31.3206 1.8006 0.5872 4.9063 13.6414 -1.7128 25.8510 -23.9034 1.7795 -8.3908 -23.9075 0.0000 0.0000 0.0000 20.2434 8.6265 0.8745 0.0000 -0.0000 0.0000 1.2046 -19.0109 -8.2420 -0.2042 2.9098 -8.0278 2.1932 0.5136 2.6245 1.4589 0.8560 -2.2638 0.2227 0.3980 -3.7942 -4.0276 -5.9549 -17.8058 5.5121 -8.5485 39.8764 1.7215 -2.7195 18.4941 -0.0000 -0.0000 0.0000 -87.4231 5.2908 34.3032 18.5347 -28.8364 -4.8043 -0.0000 0.0000 -27.7067 33.7590 52.7383 28.0116 -7.1250 0.0000 -0.0000 -64.5906 84.7853 -59.7733 -0.0000 -0.0000 0.0000 83.2171 -4.8421 21.4731 -15.8442 25.3089 -3.5791 0.0000 -0.0000 -4.4580 -20.3218 16.8296 -6.1201 7.1250 -0.0000 -0.0000 4.9880 -12.1536 3.8410
-4.3751 17.8342 0.9962 -53.0485 86.7924 -46.2431 0.0000 0.0000 0.0000 -13.5859 -30.9684 1.7254 0.5665 4.8205 13.3973 -1.6919 25.5699 -23.4187 1.8326 -8.5084 -24.2692 0.0000 0.0000 0.0000 20.1764 8.4864 0.8221 0.0000 0.0000 0.0000 1.2120 -19.0612 -8.1401 -0.2126 2.9686 -8.1913 2.1341 0.5045 2.7315 1.4509 0.8449 -2.2854 0.2471 0.3932 -3.8780 -3.7906 -5.6311 -17.8021 5.4241 -8.1116 39.0529 1.6979 -2.5653 17.9492 -0.0000 -0.0000 0.0000 -87.3689 5.5060 34.5473 18.7118 -29.0590 -4.8901 -0.0000 0.0000 -28.1225 33.9571 52.3225 28.0570 -7.1250 0.0000 -0.0000 -60.2519 84.8109 -55.6327 -0.0000 -0.0000 0.0000 83.2171 -4.8961 21.3486 -15.8614 25.3324 -3.5865 0.0000 -0.0000 -4.1957 -20.2785 16.9535 -6.1494 7.1250 -0.0000 -0.0000 5.0235 -12.0288 3.8816
-4.3658 17.8374 1.0001 -54.2187 86.9616 -47.3613 0.0000 0.0000 0.0000 -13.5927 -30.6265 1.6402 0.5432 4.7221 13.1175 -1.6793 25.3105 -22.8905 1.8470 -8.5397 -24.3659 0.0000 0.0000 0.0000 20.0814 8.3421 0.7446 0.0000 -0.0000 0.0000 1.2183 -19.1037 -8.0388 -0.2291 3.0810 -8.5044 2.0604 0.4968 2.7695 1.4324 0.8324 -2.3132 0.2696 0.3881 -3.9290 -3.4561 -5.2992 -17.8797 5.1948 -7.6440 38.3621 1.6021 -2.3955 17.5039 -0.0000 0.0000 0.0000 -87.3197 5.6848 34.8161 18.8018 -29.1717 -4.9339 -0.0000 0.0000 -28.1716 33.9118 52.2543 27.9946 -7.1250 0.0000 -0.0000 -59.4819 84.7762 -54.8650 -0.0000 0.0000 0.0000 83.2240 -4.9319 21.2898 -15.8502 25.3171 -3.5817 0.0000 -0.0000 -4.0662 -20.4485 16.9642 -6.2089 7.1250 -0.0000 -0.0000 4.9113 -11.9969 3.7975
-4.3556 17.8435 1.0042 -55.8704 87.0932 -48.9560 0.0000 0.0000 0.0000 -13.4944 -29.9744 1.3958 0.5213 4.6275 12.8491 -1.6258 24.7866 -22.1436 1.8812 -8.6141 -24.5954 0.0000 0.0000 0.0000 20.0314 8.2034 0.6849 0.0000 0.0000 -0.0000 1.2198 -19.1121 -7.9763 -0.2501 3.2177 -8.8854 2.0259 0.5290 2.7779 1.4181 0.8749 -2.3545 0.2714 0.4096 -3.9765 -3.2234 -4.9824 -18.0015 5.0905 -7.2117 37.7956 1.5795 -2.2277 17.1717 0.0000 -0.0000 0.0000 -87.2123 5.9130 35.3177 18.9087 -29.3050 -4.9861 -0.0000 0.0000 -28.2647 33.8571 52.3059 27.9621 -7.1250 0.0000 -0.0000 -59.9974 84.7613 -55.3440 0.0000 -0.0000 0.0000 83.1917 -5.0291 21.3453 -15.8639 25.3357 -3.5875 0.0000 -0.0000 -4.1940 -20.7334 16.8677 -6.2681 7.1250 -0.0000 -0.0000 4.7167 -12.0631 3.6395
-4.3452 17.8504 1.0081 -58.1803 87.1702 -51.2392 0.0000 0.0000 0.0000 -13.3352 -29.2120 1.1077 0.5038 4.5502 12.6300 -1.5409 24.1231 -21.4287 1.9538 -8.7692 -25.0761 0.0000 0.0000 0.0000 20.0480 8.0626 0.6727 0.0000 -0.0000 0.0000 1.2157 -19.0846 -8.0424 -0.2287 3.0783 -8.4968 2.0786 0.5847 2.8389 1.3889 0.9547 -2.4141 0.2059 0.4466 -4.0709 -3.1333 -4.7182 -18.1449 5.1299 -6.8635 37.3464 1.6337 -2.0864 16.9395 0.0000 0.0000 0.0000 -87.0836 6.0780 35.7647 18.8919 -29.2841 -4.9779 -0.0000 0.0000 -28.3092 33.9151 52.3266 28.0208 -7.1250 0.0000 -0.0000 -60.2642 84.7922 -55.6274 0.0000 0.0000 0.0000 83.1848 -5.1886 21.4029 -15.8769 25.3535 -3.5931 0.0000 -0.0000 -4.3665 -20.7694 16.7851 -6.2502 7.1250 -0.0000 -0.0000 4.6880 -12.1455 3.6092
-4.3347 17.8530 1.0119 -60.6097 87.2005 -53.6802 0.0000 0.0000 0.0000 -13.1967 -28.6212 0.9284 0.4912 4.4938 12.4703 -1.4722 23.6106 -20.9427 2.0144 -8.8959 -25.4703 0.0000 0.0000 0.0000 20.1118 7.9324 0.7060 0.0000 -0.0000 0.0000 1.2122 -19.0615 -8.1090 -0.2010 2.8868 -7.9638 2.1963 0.6310 2.9607 1.3400 1.0263 -2.4814 0.0834 0.4767 -4.2065 -2.9362 -4.4516 -18.3606 5.0305 -6.4973 37.0825 1.6149 -1.9329 16.8133 0.0000 0.0000 0.0000 -87.0460 6.0867 35.8081 18.6461 -28.9766 -4.8582 -0.0000 0.0000 -28.0830 34.0297 52.2093 28.0857 -7.1250 0.0000 -0.0000 -59.0774 84.8216 -54.5198 0.0000 0.0000 0.0000 83.2690 -5.3161 21.3563 -15.8428 25.3070 -3.5785 0.0000 -0.0000 -4.3194 -20.6171 16.6936 -6.1680 7.1250 -0.0000 -0.0000 4.7842 -12.2603 3.6723
-4.3237 17.8530 1.0156 -62.2778 87.2369 -55.3642 0.0000 0.0000 0.0000 -13.1037 -28.0247 0.7352 0.4832 4.4575 12.3676 -1.4068 23.1031 -20.4513 2.0733 -9.0171 -25.8490 0.0000 0.0000 0.0000 20.1452 7.8274 0.7459 0.0000 0.0000 -0.0000 1.2141 -19.0748 -8.1022 -0.1983 2.8675 -7.9100 2.2518 0.6553 3.0669 1.2936 1.0651 -2.5445 0.0003 0.4921 -4.3300 -2.5891 -4.1393 -18.5707 4.7597 -6.0499 36.9258 1.5129 -1.7453 16.7244 -0.0000 -0.0000 0.0000 -87.0475 6.0611 35.6811 18.3550 -28.6094 -4.7180 -0.0000 0.0000 -27.8406 34.0523 52.1747 28.0948 -7.1250 0.0000 -0.0000 -58.7185 84.8246 -54.1799 -0.0000 -0.0000 0.0000 83.3632 -5.3788 21.2877 -15.7731 25.2120 -3.5487 0.0000 -0.0000 -4.1257 -20.4363 16.6608 -6.0979 7.1250 -0.0000 -0.0000 4.9026 -12.3168 3.7581
-4.3110 17.8530 1.0193 -63.6495 87.2866 -56.7794 0.0000 0.0000 0.0000 -13.0515 -27.3656 0.5471 0.4779 4.4332 12.2988 -1.3183 22.4740 -19.9830 2.1127 -9.0970 -26.0993 0.0000 0.0000 0.0000 20.1597 7.7178 0.8126 0.0000 0.0000 -0.0000 1.2199 -19.1169 -8.0856 -0.2054 2.9184 -8.0516 2.2542 0.6741 3.1383 1.2483 1.0915 -2.5784 -0.0508 0.5034 -4.4044 -2.3344 -3.8605 -18.7074 4.5630 -5.6469 36.7962 1.4539 -1.5775 16.6464 0.0000 0.0000 0.0000 -86.9767 6.0926 35.7470 18.1659 -28.3691 -4.6278 -0.0000 0.0000 -27.7898 34.0371 52.2979 28.1208 -7.1250 0.0000 -0.0000 -60.0464 84.8432 -55.4656 0.0000 0.0000 0.0000 83.4588 -5.4088 21.1932 -15.6807 25.0858 -3.5095 0.0000 -0.0000 -3.8639 -20.3431 16.7393 -6.0953 7.1250 -0.0000 -0.0000 4.9690 -12.2457 3.8167
-4.2977 17.8513 1.0215 -65.2539 87.3143 -58.4808 0.0000 0.0000 0.0000 -13.0327 -26.8452 0.4998 0.4731 4.4114 12.2371 -1.2374 21.9479 -19.7234 2.1188 -9.1092 -26.1375 0.0000 0.0000 0.0000 20.1999 7.5889 0.9422 0.0000 -0.0000 0.0000 1.2231 -19.1418 -8.1290 -0.1936 2.8338 -7.8165 2.2896 0.6998 3.2200 1.2040 1.1279 -2.5733 -0.1198 0.5190 -4.4435 -2.1346 -3.6181 -18.8473 4.3768 -5.2826 36.7161 1.4033 -1.4296 16.6028 0.0000 0.0000 0.0000 -86.8861 6.1473 35.9049 18.0481 -28.2188 -4.5720 -0.0000 0.0000 -27.8877 34.2123 52.3607 28.2982 -7.1250 0.0000 -0.0000 -60.8846 84.9363 -56.3536 0.0000 0.0000 0.0000 83.5788 -5.3694 21.0414 -15.5556 24.9145 -3.4566 0.0000 -0.0000 -3.5038 -20.3930 16.8209 -6.1402 7.1250 -0.0000 -0.0000 4.9402 -12.1540 3.8039
